{"accessors" : [{"bufferView" : 0, "byteOffset" : 0, "componentType" : 5123, "count" : 20532, "type" : "SCALAR", "max" : [4527], "min" : [0]}, {"bufferView" : 1, "byteOffset" : 0, "componentType" : 5126, "count" : 4528, "type" : "VEC3", "max" : [0.11864624917507172, 0.2549077868461609, 0.2889995276927948], "min" : [-0.12406262755393982, -0.2491287887096405, -0.29329824447631836], "name" : "POSITION"}, {"bufferView" : 1, "byteOffset" : 12, "componentType" : 5126, "count" : 4528, "type" : "VEC3", "max" : [0.9997840523719788, 0.9997244477272034, 0.9999353885650635], "min" : [-0.9999439120292664, -0.9999149441719055, -1.0000032186508179], "name" : "NORMAL"}, {"bufferView" : 1, "byteOffset" : 24, "componentType" : 5126, "count" : 4528, "type" : "VEC2", "max" : [0.9916364550590515, 1.9992027282714844], "min" : [0.000797296641394496, 1.0007972717285156], "name" : "TEXCOORD_0"}], "asset" : {"generator" : "Aspose.3D 24.4.1", "version" : "2.0"}, "buffers" : [{"uri" : "data:application/octet-stream;base64,", "byteLength" : 185968}], "bufferViews" : [{"buffer" : 0, "byteOffset" : 0, "byteLength" : 41064, "target" : 34963}, {"buffer" : 0, "byteOffset" : 41068, "byteLength" : 144896, "byteStride" : 32, "target" : 34962}], "images" : [{"uri" : "data:image/jpeg;base64,"}, {"uri" : "data:image/jpeg;base64,"}, {"uri" : "data:image/jpeg;base64,"}], "materials" : [{"name" : "base_material", "pbrMetallicRoughness" : {"baseColorFactor" : [1, 1, 1, 1], "baseColorTexture" : {"index" : 1, "texCoord" : 0}, "metallicFactor" : 1, "roughnessFactor" : 1, "metallicRoughnessTexture" : {"index" : 2, "texCoord" : 0}}, "normalTexture" : {"index" : 0, "texCoord" : 0, "scale" : 1}, "emissiveFactor" : [0, 0, 0], "alphaMode" : "OPAQUE", "doubleSided" : true}], "meshes" : [{"primitives" : [{"attributes" : {"POSITION" : 1, "NORMAL" : 2, "TEXCOORD_0" : 3}, "indices" : 0, "material" : 0, "mode" : 4}]}], "nodes" : [{"matrix" : [1.716695785522461, 0, 0, 0, 0, -2.306532826755036E-07, 1.7166960161757436, 0, 0, -1.7166960161757436, -2.306532826755036E-07, 0, 0, 0, 0, 1], "mesh" : 0, "name" : "mesh"}], "samplers" : [{"magFilter" : 9729, "minFilter" : 9987, "wrapS" : 10497, "wrapT" : 10497}, {"magFilter" : 9729, "minFilter" : 9987, "wrapS" : 10497, "wrapT" : 10497}, {"magFilter" : 9729, "minFilter" : 9987, "wrapS" : 10497, "wrapT" : 10497}], "scene" : 0, "scenes" : [{"nodes" : [0]}], "textures" : [{"sampler" : 0, "source" : 0, "name" : ""}, {"sampler" : 1, "source" : 1, "name" : ""}, {"sampler" : 2, "source" : 2, "name" : ""}]}