{"asset":{"version":"2.0","generator":"Blockbench 4.9.3 glTF exporter"},"scenes":[{"nodes":[14],"name":"blockbench_export"}],"scene":0,"nodes":[{"name":"cuboid","mesh":0},{"translation":[0,-0.0625,1.359375],"name":"mirror_left","mesh":1},{"translation":[0,-0.0625,1.359375],"name":"mirror_right","mesh":2},{"translation":[0,0.0625,0],"name":"body","children":[0,1,2]},{"translation":[0.042279411764704955,-1.1102230246251565e-16,0],"name":"cylinder","mesh":3},{"translation":[-0.511029411764705,0.2187500000000001,0.65625],"name":"wheel_left_rear","children":[4]},{"translation":[-0.042279411764704955,-1.1102230246251565e-16,0],"name":"cylinder","mesh":4},{"translation":[0.511029411764705,0.2187500000000001,0.65625],"name":"wheel_right_rear","children":[6]},{"translation":[-0.042279411764704955,-1.1102230246251565e-16,0.015625],"name":"cylinder","mesh":5},{"translation":[0.511029411764705,0.2187500000000001,-0.71875],"name":"wheel_right_front","children":[8]},{"translation":[0.042279411764704955,-1.1102230246251565e-16,0.015625],"name":"cylinder","mesh":6},{"translation":[-0.511029411764705,0.2187500000000001,-0.71875],"name":"wheel_left_front","children":[10]},{"name":"wheels","children":[5,7,9,11]},{"name":"root","children":[3,12]},{"children":[13]}],"bufferViews":[{"buffer":0,"byteOffset":0,"byteLength":3936,"target":34962,"byteStride":12},{"buffer":0,"byteOffset":3936,"byteLength":3936,"target":34962,"byteStride":12},{"buffer":0,"byteOffset":7872,"byteLength":2624,"target":34962,"byteStride":8},{"buffer":0,"byteOffset":10496,"byteLength":984,"target":34963},{"buffer":0,"byteOffset":11480,"byteLength":672,"target":34962,"byteStride":12},{"buffer":0,"byteOffset":12152,"byteLength":672,"target":34962,"byteStride":12},{"buffer":0,"byteOffset":12824,"byteLength":448,"target":34962,"byteStride":8},{"buffer":0,"byteOffset":13272,"byteLength":168,"target":34963},{"buffer":0,"byteOffset":13440,"byteLength":672,"target":34962,"byteStride":12},{"buffer":0,"byteOffset":14112,"byteLength":672,"target":34962,"byteStride":12},{"buffer":0,"byteOffset":14784,"byteLength":448,"target":34962,"byteStride":8},{"buffer":0,"byteOffset":15232,"byteLength":168,"target":34963},{"buffer":0,"byteOffset":15400,"byteLength":1728,"target":34962,"byteStride":12},{"buffer":0,"byteOffset":17128,"byteLength":1728,"target":34962,"byteStride":12},{"buffer":0,"byteOffset":18856,"byteLength":1152,"target":34962,"byteStride":8},{"buffer":0,"byteOffset":20008,"byteLength":384,"target":34963},{"buffer":0,"byteOffset":20392,"byteLength":1728,"target":34962,"byteStride":12},{"buffer":0,"byteOffset":22120,"byteLength":1728,"target":34962,"byteStride":12},{"buffer":0,"byteOffset":23848,"byteLength":1152,"target":34962,"byteStride":8},{"buffer":0,"byteOffset":25000,"byteLength":384,"target":34963},{"buffer":0,"byteOffset":25384,"byteLength":1728,"target":34962,"byteStride":12},{"buffer":0,"byteOffset":27112,"byteLength":1728,"target":34962,"byteStride":12},{"buffer":0,"byteOffset":28840,"byteLength":1152,"target":34962,"byteStride":8},{"buffer":0,"byteOffset":29992,"byteLength":384,"target":34963},{"buffer":0,"byteOffset":30376,"byteLength":1728,"target":34962,"byteStride":12},{"buffer":0,"byteOffset":32104,"byteLength":1728,"target":34962,"byteStride":12},{"buffer":0,"byteOffset":33832,"byteLength":1152,"target":34962,"byteStride":8},{"buffer":0,"byteOffset":34984,"byteLength":384,"target":34963},{"buffer":0,"byteOffset":35368,"byteLength":12},{"buffer":0,"byteOffset":35380,"byteLength":36},{"buffer":0,"byteOffset":35416,"byteLength":12},{"buffer":0,"byteOffset":35428,"byteLength":48},{"buffer":0,"byteOffset":35476,"byteLength":12},{"buffer":0,"byteOffset":35488,"byteLength":48},{"buffer":0,"byteOffset":35536,"byteLength":12},{"buffer":0,"byteOffset":35548,"byteLength":48},{"buffer":0,"byteOffset":35596,"byteLength":12},{"buffer":0,"byteOffset":35608,"byteLength":48},{"buffer":0,"byteOffset":35656,"byteLength":8},{"buffer":0,"byteOffset":35664,"byteLength":32},{"buffer":0,"byteOffset":35696,"byteLength":68},{"buffer":0,"byteOffset":35764,"byteLength":272}],"buffers":[{"byteLength":36036,"uri":"data:application/octet-stream;base64,"}],"accessors":[{"bufferView":0,"componentType":5126,"count":328,"max":[0.5625,1.0625,1.0625],"min":[-0.5625,0.1875,-1.25],"type":"VEC3"},{"bufferView":1,"componentType":5126,"count":328,"max":[1,1,1],"min":[-1,-1,-1],"type":"VEC3"},{"bufferView":2,"componentType":5126,"count":328,"max":[0.5595554709434509,0.53125],"min":[0,0],"type":"VEC2"},{"bufferView":3,"componentType":5123,"count":492,"max":[327],"min":[0],"type":"SCALAR"},{"bufferView":4,"componentType":5126,"count":56,"max":[-0.5625,0.84375,-1.78125],"min":[-0.84375,0.6875,-1.90625],"type":"VEC3"},{"bufferView":5,"componentType":5126,"count":56,"max":[1,1,1],"min":[-0.8944271802902222,-1,-1],"type":"VEC3"},{"bufferView":6,"componentType":5126,"count":56,"max":[0.567040205001831,0.55859375],"min":[0,0],"type":"VEC2"},{"bufferView":7,"componentType":5123,"count":84,"max":[55],"min":[0],"type":"SCALAR"},{"bufferView":8,"componentType":5126,"count":56,"max":[0.84375,0.84375,-1.78125],"min":[0.5625,0.6875,-1.90625],"type":"VEC3"},{"bufferView":9,"componentType":5126,"count":56,"max":[0.8944271802902222,1,1],"min":[-1,-1,-1],"type":"VEC3"},{"bufferView":10,"componentType":5126,"count":56,"max":[0.576171875,0.56640625],"min":[0.125,0.0234375],"type":"VEC2"},{"bufferView":11,"componentType":5123,"count":84,"max":[55],"min":[0],"type":"SCALAR"},{"bufferView":12,"componentType":5126,"count":144,"max":[0.125,0.21875,0.21875],"min":[-0.125,-0.21875,-0.21875],"type":"VEC3"},{"bufferView":13,"componentType":5126,"count":144,"max":[1,1,1],"min":[-1,-1,-1],"type":"VEC3"},{"bufferView":14,"componentType":5126,"count":144,"max":[0.5703125,0.578125],"min":[0,0],"type":"VEC2"},{"bufferView":15,"componentType":5123,"count":192,"max":[143],"min":[0],"type":"SCALAR"},{"bufferView":16,"componentType":5126,"count":144,"max":[0.125,0.21875,0.21875],"min":[-0.125,-0.21875,-0.21875],"type":"VEC3"},{"bufferView":17,"componentType":5126,"count":144,"max":[1,1,1],"min":[-1,-1,-1],"type":"VEC3"},{"bufferView":18,"componentType":5126,"count":144,"max":[0.5625,0.5703125],"min":[0.0546875,0.15625],"type":"VEC2"},{"bufferView":19,"componentType":5123,"count":192,"max":[143],"min":[0],"type":"SCALAR"},{"bufferView":20,"componentType":5126,"count":144,"max":[0.125,0.21875,0.203125],"min":[-0.125,-0.21875,-0.234375],"type":"VEC3"},{"bufferView":21,"componentType":5126,"count":144,"max":[1,1,1],"min":[-1,-1,-1],"type":"VEC3"},{"bufferView":22,"componentType":5126,"count":144,"max":[0.5546875,0.5546875],"min":[0,0.0625],"type":"VEC2"},{"bufferView":23,"componentType":5123,"count":192,"max":[143],"min":[0],"type":"SCALAR"},{"bufferView":24,"componentType":5126,"count":144,"max":[0.125,0.21875,0.203125],"min":[-0.125,-0.21875,-0.234375],"type":"VEC3"},{"bufferView":25,"componentType":5126,"count":144,"max":[1,1,1],"min":[-1,-1,-1],"type":"VEC3"},{"bufferView":26,"componentType":5126,"count":144,"max":[0.5390625,0.53125],"min":[0,0],"type":"VEC2"},{"bufferView":27,"componentType":5123,"count":192,"max":[143],"min":[0],"type":"SCALAR"},{"bufferView":28,"componentType":5126,"count":3,"max":[1],"min":[0],"type":"SCALAR"},{"bufferView":29,"componentType":5126,"count":3,"max":[0,0.046875,0],"min":[0,0,0],"type":"VEC3"},{"bufferView":30,"componentType":5126,"count":3,"max":[1],"min":[0],"type":"SCALAR"},{"bufferView":31,"componentType":5126,"count":3,"max":[0,0,0,1],"min":[-0.9999904632568359,0,0,-0.9999619126319885],"type":"VEC4"},{"bufferView":32,"componentType":5126,"count":3,"max":[1],"min":[0],"type":"SCALAR"},{"bufferView":33,"componentType":5126,"count":3,"max":[0,0,0,1],"min":[-0.9999904632568359,0,0,-0.9999619126319885],"type":"VEC4"},{"bufferView":34,"componentType":5126,"count":3,"max":[1],"min":[0],"type":"SCALAR"},{"bufferView":35,"componentType":5126,"count":3,"max":[0,0,0,1],"min":[-0.9999904632568359,0,0,-0.9999619126319885],"type":"VEC4"},{"bufferView":36,"componentType":5126,"count":3,"max":[1],"min":[0],"type":"SCALAR"},{"bufferView":37,"componentType":5126,"count":3,"max":[0,0,0,1],"min":[-0.9999904632568359,0,0,-0.9999619126319885],"type":"VEC4"},{"bufferView":38,"componentType":5126,"count":2,"max":[1],"min":[0],"type":"SCALAR"},{"bufferView":39,"componentType":5126,"count":2,"max":[0,0,0,1],"min":[0,0,0,1],"type":"VEC4"},{"bufferView":40,"componentType":5126,"count":17,"max":[1],"min":[0],"type":"SCALAR"},{"bufferView":41,"componentType":5126,"count":17,"max":[0.04361938685178757,0,0,1],"min":[-0.016143593937158585,0,0,0.9990482330322266],"type":"VEC4"}],"materials":[{"pbrMetallicRoughness":{"metallicFactor":0,"roughnessFactor":1,"baseColorTexture":{"index":0}},"alphaMode":"MASK","alphaCutoff":0.05,"doubleSided":true}],"textures":[{"sampler":0,"source":0}],"samplers":[{"magFilter":9728,"minFilter":9728,"wrapS":33071,"wrapT":33071}],"images":[{"mimeType":"image/png","uri":"data:image/png;base64,"}],"meshes":[{"primitives":[{"mode":4,"attributes":{"POSITION":0,"NORMAL":1,"TEXCOORD_0":2},"indices":3,"material":0}]},{"primitives":[{"mode":4,"attributes":{"POSITION":4,"NORMAL":5,"TEXCOORD_0":6},"indices":7,"material":0}]},{"primitives":[{"mode":4,"attributes":{"POSITION":8,"NORMAL":9,"TEXCOORD_0":10},"indices":11,"material":0}]},{"primitives":[{"mode":4,"attributes":{"POSITION":12,"NORMAL":13,"TEXCOORD_0":14},"indices":15,"material":0}]},{"primitives":[{"mode":4,"attributes":{"POSITION":16,"NORMAL":17,"TEXCOORD_0":18},"indices":19,"material":0}]},{"primitives":[{"mode":4,"attributes":{"POSITION":20,"NORMAL":21,"TEXCOORD_0":22},"indices":23,"material":0}]},{"primitives":[{"mode":4,"attributes":{"POSITION":24,"NORMAL":25,"TEXCOORD_0":26},"indices":27,"material":0}]}],"animations":[{"name":"animation","samplers":[{"input":28,"output":29,"interpolation":"LINEAR"},{"input":30,"output":31,"interpolation":"LINEAR"},{"input":32,"output":33,"interpolation":"LINEAR"},{"input":34,"output":35,"interpolation":"LINEAR"},{"input":36,"output":37,"interpolation":"LINEAR"},{"input":38,"output":39,"interpolation":"LINEAR"},{"input":40,"output":41,"interpolation":"LINEAR"}],"channels":[{"sampler":0,"target":{"node":13,"path":"translation"}},{"sampler":1,"target":{"node":11,"path":"rotation"}},{"sampler":2,"target":{"node":9,"path":"rotation"}},{"sampler":3,"target":{"node":7,"path":"rotation"}},{"sampler":4,"target":{"node":5,"path":"rotation"}},{"sampler":5,"target":{"node":12,"path":"rotation"}},{"sampler":6,"target":{"node":3,"path":"rotation"}}]}]}